<svg preserveAspectRatio="none" width="100%" height="100%" overflow="visible" style="display: block;" viewBox="0 0 232.319 26.213" fill="none" xmlns="http://www.w3.org/2000/svg">
<g id="Logo big">
<path id="Vector" d="M173.52 19.7441L173.66 19.7234C173.755 19.7089 174.135 19.7165 174.275 19.7357C174.749 19.8007 175.216 19.9982 175.597 20.2952C175.76 20.4222 176.013 20.6894 176.148 20.8769C176.367 21.1797 176.568 21.6633 176.641 22.0613C176.668 22.2094 176.672 22.283 176.673 22.5669C176.673 22.9214 176.665 23.0004 176.597 23.2754C176.473 23.7768 176.233 24.2227 175.901 24.568C175.494 24.9907 175.025 25.26 174.509 25.3675C174.069 25.459 173.673 25.4499 173.222 25.3379C172.97 25.2755 172.726 25.1668 172.483 25.008C171.757 24.5331 171.299 23.7905 171.195 22.9171C171.168 22.6859 171.185 22.2171 171.229 22.0029C171.352 21.4001 171.607 20.9256 172.04 20.494C172.203 20.3318 172.262 20.2834 172.427 20.1763C172.785 19.9454 173.16 19.7972 173.52 19.7441Z" fill="var(--fill-0, #AFCB24)"/>
<path id="Vector_2" fill-rule="evenodd" clip-rule="evenodd" d="M40.1041 0.0914933C40.0856 0.141775 40.0791 4.85833 40.0896 10.5728L40.1089 20.9626L40.2677 21.5319C40.9006 23.8009 42.5147 25.6031 44.3604 26.1017C44.6986 26.1931 45.278 26.2122 47.7063 26.2122H50.6432V22.534V18.8557H49.5585C48.5303 18.8557 48.4553 18.8461 48.1187 18.6715C47.9233 18.5702 47.6698 18.3642 47.5552 18.2137C47.1607 17.6953 47.1428 17.5587 47.1428 15.0613V12.7847H48.8937H50.6447L50.6267 9.83852L50.6088 6.89232L48.8758 6.87325L47.1428 6.85417V3.42709V0H43.6404C40.857 0 40.1309 0.0187847 40.1041 0.0914933ZM132.075 0.0892787C132.057 0.138418 132.05 5.8674 132.06 12.8204L132.077 25.4623L135.594 25.4808L139.111 25.4993L139.129 22.2476L139.147 18.9959L139.484 19.5865C139.67 19.9112 140.268 20.9323 140.815 21.8554C141.361 22.7786 142.024 23.9196 142.288 24.391C142.551 24.8623 142.814 25.3042 142.872 25.373C142.97 25.4893 143.247 25.498 146.844 25.498C149.799 25.498 150.712 25.4779 150.712 25.4126C150.712 25.3657 150.447 24.8594 150.123 24.2877C149.799 23.7159 149.095 22.4607 148.558 21.4983C148.021 20.5359 147.077 18.8522 146.459 17.7567L145.337 15.7649L145.566 15.3283C145.692 15.0882 146.443 13.7186 147.234 12.2848C148.849 9.35684 150.094 7.02381 150.094 6.92346C150.094 6.88275 148.622 6.85661 146.33 6.85661C142.829 6.85661 142.558 6.86539 142.464 6.9816C142.408 7.05038 141.826 8.00652 141.171 9.10643C140.516 10.2063 139.784 11.4256 139.546 11.8159L139.112 12.5254V6.26273V0H135.61C132.871 0 132.1 0.0194985 132.075 0.0892787ZM8.05687 6.22437C5.17678 6.60827 2.75194 8.26142 1.43987 10.7355C1.14131 11.2985 0.767804 12.226 0.70219 12.5674L0.66046 12.7847H3.8551H7.04967L7.09524 12.5687C7.2172 11.991 7.88769 11.5724 8.69283 11.5712C9.29036 11.5704 9.56277 11.6761 9.85474 12.0222C10.1245 12.342 10.208 12.6382 10.2629 13.4703L10.3057 14.1202L9.14643 14.1627C5.88701 14.2822 3.08756 15.2082 1.59622 16.66C-0.540634 18.7401 -0.530545 22.5254 1.61749 24.6512C2.65984 25.6828 3.95626 26.2136 5.42688 26.211C6.52022 26.2091 7.36998 25.9724 8.28027 25.4162C8.80162 25.0977 9.70903 24.1385 10.029 23.5677L10.2864 23.1086V24.304V25.4993L13.8039 25.4808L17.3214 25.4623L17.3413 19.6056C17.3546 15.7248 17.3361 13.5164 17.2868 13.0597C16.8835 9.33177 14.5122 6.82732 10.8354 6.24629C10.1239 6.1338 8.81349 6.12345 8.05687 6.22437ZM30.7028 6.27643C29.2756 6.64183 28.0543 7.6144 27.0659 9.17271L26.5869 9.9278L26.5526 8.41006L26.5183 6.89232H23.018H19.5176V16.1773V25.4623H23.018H26.5183L26.5526 19.927L26.5869 14.3917L26.785 13.9455C27.1574 13.1065 27.8526 12.6287 28.7146 12.6193C29.5362 12.6104 30.2661 13.0994 30.6521 13.9173L30.8423 14.3203L30.8766 19.8913L30.9109 25.4623L34.4306 25.4808L37.9505 25.4993L37.929 18.6242L37.9075 11.7491L37.7211 11.0844C37.3375 9.71695 36.7554 8.68332 35.8966 7.84467C34.4904 6.47156 32.4027 5.84125 30.7028 6.27643ZM60.6637 6.24752C58.4203 6.63477 56.2901 7.83696 54.9541 9.46969C53.7768 10.9085 53.1374 12.1817 52.7169 13.9243C52.5511 14.6114 52.535 14.8028 52.5328 16.1059C52.5304 17.6821 52.604 18.2125 52.9894 19.3913C53.4518 20.8059 54.1674 22.0111 55.2153 23.1397C56.5674 24.5961 58.0376 25.4747 59.9744 25.9838C60.6442 26.1598 60.8053 26.174 62.1393 26.174C63.4734 26.174 63.6345 26.1598 64.3043 25.9838C66.2023 25.4849 67.6244 24.6456 69.0267 23.1969C70.3029 21.8783 71.2095 20.0884 71.6233 18.07C71.8008 17.2042 71.7979 15.1453 71.6178 14.2489C71.1165 11.7532 69.7618 9.52004 67.8703 8.07165C66.8785 7.31214 65.3931 6.6367 64.0255 6.32308C63.3076 6.15852 61.4244 6.11617 60.6637 6.24752ZM84.6705 6.28337C83.2907 6.64919 81.9848 7.71426 80.9909 9.2842L80.5676 9.95286V8.40413V6.85533L77.0501 6.87382L73.5326 6.89232L73.5152 16.1952L73.4978 25.498H77.0307H80.5635L80.5827 19.9449L80.6019 14.3917L80.7851 13.9849C81.1689 13.1328 81.893 12.6237 82.7295 12.6177C83.5535 12.6117 84.2538 13.0802 84.656 13.9068L84.8572 14.3203L84.8915 19.8913L84.9258 25.4623L88.4433 25.4808L91.9608 25.4993V18.9728C91.9608 11.7586 91.9647 11.8336 91.5209 10.4805C91.1878 9.46455 90.7425 8.73139 89.9704 7.92781C89.2185 7.14523 88.5111 6.71133 87.4653 6.39136C86.6067 6.12873 85.4258 6.0831 84.6705 6.28337ZM102.08 6.21237C98.8902 6.68226 96.0937 8.73418 94.7496 11.5906C94.0312 13.1174 93.7203 14.5024 93.7203 16.1773C93.7203 17.88 94.0272 19.2199 94.7843 20.8235C95.9757 23.3468 98.5542 25.3887 101.364 26.0338C102.175 26.22 104.005 26.2581 104.875 26.1067C106.188 25.8784 107.567 25.3169 108.673 24.5598C109.305 24.1273 110.626 22.8195 111.112 22.1454C112.801 19.8017 113.419 16.5931 112.727 13.7601C112.173 11.4962 110.745 9.30113 108.982 8.00694C107.982 7.27264 106.509 6.61527 105.207 6.32194C104.608 6.18695 102.704 6.12031 102.08 6.21237ZM158.508 6.25501C157.406 6.43336 156.098 6.88203 155.241 7.37592C153.943 8.12415 152.585 9.61089 151.889 11.0464C151.709 11.4165 151.364 12.3258 151.303 12.5883L151.258 12.7847H154.485H157.712V12.6227C157.712 12.3458 158.026 11.9554 158.409 11.7568C158.703 11.6048 158.864 11.5708 159.287 11.5721C160.421 11.5755 160.863 12.1369 160.868 13.5774L160.869 14.12L159.72 14.1648C157.463 14.2528 155.6 14.6732 153.961 15.4651C152.936 15.9601 152.275 16.4779 151.7 17.2376C151.245 17.8382 150.956 18.4566 150.769 19.2256C150.576 20.0204 150.615 21.558 150.847 22.3197C151.393 24.1084 152.663 25.4046 154.452 25.998C155.187 26.2418 156.53 26.2801 157.303 26.0792C158.624 25.7365 159.779 24.8968 160.523 23.7389L160.866 23.206L160.885 24.3342L160.904 25.4623L164.421 25.4808L167.939 25.4993V19.3971C167.939 15.4443 167.913 13.101 167.865 12.7443C167.716 11.6299 167.277 10.3879 166.727 9.52125C166.374 8.96537 165.529 8.0518 165.022 7.67733C163.352 6.44414 160.793 5.8854 158.508 6.25501ZM112.894 6.9371C112.894 6.98131 113.217 9.52847 113.613 12.5974C114.008 15.6662 114.395 18.7396 114.472 19.4271C114.768 22.0443 115.17 25.183 115.231 25.3373L115.293 25.498H121.811C125.505 25.498 128.345 25.4707 128.366 25.4349C128.408 25.3646 129.393 17.7151 129.682 15.2131C129.785 14.3292 130.06 12.1116 130.294 10.2849C130.529 8.45827 130.707 6.9396 130.691 6.91017C130.675 6.88075 129.09 6.85661 127.167 6.85661H123.672L123.637 7.01731C123.584 7.26158 122.811 13.2145 122.47 15.9988C122.017 19.705 121.863 20.8555 121.82 20.8555C121.799 20.8555 121.694 20.1565 121.588 19.3021C121.171 15.9671 119.968 6.99374 119.929 6.92711C119.866 6.82147 112.894 6.83132 112.894 6.9371ZM214.108 12.9019C214.082 12.9291 214.061 13.96 214.061 15.1927V17.4339L213.803 17.2222C213.212 16.7357 212.215 16.4555 211.328 16.5262C210.231 16.6136 209.439 17.0086 208.603 17.8856C207.999 18.5181 207.648 19.1512 207.43 19.9984C207.266 20.6382 207.262 22.0786 207.423 22.7125C207.769 24.0727 208.641 25.2221 209.742 25.7693C210.446 26.1189 210.854 26.2122 211.682 26.2122C212.622 26.2122 213.423 25.9497 213.985 25.4574C214.105 25.3521 214.213 25.278 214.225 25.2927C214.237 25.3074 214.327 25.5054 214.425 25.7326L214.604 26.1459L215.311 26.1255L216.017 26.1051V19.4985V12.8919L215.086 12.8721C214.575 12.8612 214.134 12.8746 214.108 12.9019ZM219.661 12.9303C219.238 13.0623 218.863 13.6062 218.867 14.0859C218.869 14.4424 219.093 14.8861 219.358 15.056C220.026 15.4857 220.839 15.2431 221.098 14.5368C221.454 13.5679 220.617 12.6327 219.661 12.9303ZM61.6246 13.5969C60.4202 13.8801 59.5698 14.9505 59.5664 16.1877C59.5643 16.933 60.0245 17.8409 60.647 18.3197C62.1607 19.4841 64.2706 18.5766 64.6442 16.6005C64.9788 14.8308 63.3341 13.1948 61.6246 13.5969ZM102.805 13.5962C102.018 13.7827 101.404 14.2852 101.054 15.0307C100.784 15.604 100.738 16.4222 100.941 17.0221C101.336 18.1873 102.425 18.94 103.556 18.83C104.443 18.7438 105.276 18.1142 105.675 17.2285C105.835 16.8748 105.859 16.7293 105.858 16.1416C105.858 15.3299 105.73 14.9788 105.239 14.4322C104.574 13.6928 103.686 13.3875 102.805 13.5962ZM190.441 14.9788C190.42 15.6916 190.393 15.8584 190.267 16.0702C190.038 16.4519 189.767 16.5814 189.105 16.6243L188.529 16.6617V17.5725C188.529 18.3371 188.546 18.4902 188.637 18.5266C188.697 18.5505 189.052 18.57 189.427 18.57H190.107L190.108 20.8734C190.108 22.1403 190.14 23.3857 190.178 23.641C190.331 24.6622 190.973 25.5782 191.823 25.9872C192.279 26.2067 193.222 26.2832 193.712 26.1403L194.02 26.0508V25.1436V24.2363L193.645 24.2687C193.111 24.3147 192.817 24.238 192.532 23.9778C192.104 23.5867 192.098 23.5425 192.098 20.9312V18.574L193.042 18.5541L193.985 18.5343L194.004 17.5879L194.024 16.6416H193.062H192.101L192.082 15.4095L192.063 14.1775L191.264 14.1574L190.465 14.1373L190.441 14.9788ZM182.438 16.6068C181.151 16.8979 180.26 17.925 180.174 19.2164C180.122 19.9944 180.271 20.4793 180.713 20.9651C181.195 21.4957 181.794 21.7987 183.046 22.1449C184.65 22.5889 184.96 22.7689 184.96 23.2576C184.96 23.8969 184.502 24.2297 183.564 24.2715C182.594 24.3147 182.108 24.0305 181.923 23.3111L181.843 22.9982H180.896H179.95V23.1653C179.95 23.4795 180.224 24.4497 180.403 24.7667C180.992 25.8127 181.98 26.2552 183.587 26.1922C184.602 26.1525 184.999 26.0388 185.587 25.6201C186.403 25.0389 186.79 24.1731 186.731 23.0568C186.693 22.3355 186.555 22.025 186.061 21.5437C185.611 21.1055 184.952 20.7947 183.862 20.5059C182.706 20.1998 182.168 19.9636 182.04 19.707C181.906 19.4381 181.914 19.2934 182.077 19.0157C182.358 18.5366 183.045 18.3261 183.774 18.4958C184.211 18.5975 184.642 18.9869 184.718 19.3483L184.765 19.5699H185.688C186.404 19.5699 186.619 19.548 186.647 19.4726C186.706 19.3123 186.48 18.4301 186.283 18.0534C186.026 17.5627 185.393 16.9727 184.93 16.7925C184.175 16.4985 183.229 16.428 182.438 16.6068ZM227.18 16.579C226.69 16.6636 225.95 16.9933 225.531 17.3134C224.701 17.9475 224 19.0287 223.762 20.043C223.605 20.7112 223.604 22.0891 223.76 22.7125C224.098 24.0643 224.974 25.2197 226.077 25.7707C226.807 26.1355 227.315 26.2371 228.212 26.1977C230.043 26.1174 231.463 24.9828 232.084 23.1046C232.33 22.3603 232.396 20.8993 232.219 20.1056C231.682 17.6998 229.505 16.1768 227.18 16.579ZM196.711 19.8734C196.733 23.0081 196.738 23.1198 196.888 23.5843C197.096 24.2258 197.637 25.0525 198.085 25.4112C198.892 26.0578 199.488 26.2439 200.599 26.196C201.436 26.16 201.88 26.014 202.514 25.5662L202.908 25.2882L203.098 25.717L203.288 26.1458L203.99 26.1255L204.692 26.1051V21.3912V16.6773H203.731H202.77L202.736 19.7127C202.702 22.7073 202.7 22.7524 202.544 23.055C202.138 23.8474 201.569 24.2293 200.733 24.2718C200.285 24.2945 200.151 24.2723 199.841 24.124C199.31 23.8703 199.063 23.6209 198.809 23.0848L198.584 22.6088L198.562 19.6252L198.541 16.6416H197.615H196.69L196.711 19.8734ZM219.071 21.3912V26.1408H220.032H220.993V21.3912V16.6416H220.032H219.071V21.3912ZM9.12591 17.7189C8.18892 17.8452 7.50581 18.2337 7.22413 18.8004C7.01706 19.2171 7.12262 19.8531 7.44822 20.1507C8.21377 20.8505 9.52914 20.4044 10.0043 19.2838C10.1392 18.9654 10.2849 18.2178 10.2858 17.8379C10.2864 17.6473 10.2756 17.6418 9.92605 17.6505C9.7279 17.6555 9.36778 17.6863 9.12591 17.7189ZM159.713 17.7257C159.078 17.8085 158.525 18.022 158.217 18.3027C157.239 19.1964 157.803 20.6004 159.091 20.4788C160.15 20.3789 160.869 19.3741 160.869 17.9951V17.6415L160.543 17.6507C160.364 17.6558 159.99 17.6895 159.713 17.7257ZM211.212 18.4894C210.277 18.7465 209.619 19.4161 209.323 20.4136C208.893 21.8617 209.484 23.435 210.688 24.0504C211.033 24.2266 211.15 24.248 211.761 24.2473C212.376 24.2467 212.485 24.226 212.806 24.051C213.317 23.7715 213.596 23.4916 213.842 23.0128C214.888 20.9707 213.86 18.5841 211.881 18.4615C211.627 18.4457 211.326 18.4583 211.212 18.4894ZM227.41 18.5273C226.933 18.6847 226.589 18.9046 226.287 19.2464C225.737 19.8669 225.479 20.7038 225.542 21.662C225.609 22.6805 226.205 23.6661 227 24.0733C227.29 24.2219 227.439 24.248 227.993 24.247C228.567 24.2461 228.688 24.2229 228.997 24.054C230.41 23.2828 230.827 21.0857 229.857 19.5248C229.32 18.6602 228.285 18.2384 227.41 18.5273Z" fill="var(--fill-0, black)"/>
</g>
</svg>
